<svg xmlns="http://www.w3.org/2000/svg" viewBox="0 0 1024 1024">
  <!-- Rounded background rectangle - dark mode -->
  <rect width="1024" height="1024" fill="#1e1b4b" rx="200" ry="200"/>
  
  <!-- Chest icon, made EXTREMELY large and centered -->
  <g transform="translate(-150, 1150) scale(0.13, -0.13)">
    <path
      d="M3720 7380 c-297 -40 -529 -270 -735 -730 -92 -203 -155 -429 -186
      -660 -16 -126 -13 -437 6 -545 18 -104 49 -174 85 -193 35 -18 127 -9 178 17
      47 24 61 41 362 436 117 154 326 425 464 603 l250 322 1438 0 c1255 0 1439 -2
      1444 -15 4 -9 -123 -196 -328 -485 -183 -259 -333 -478 -333 -488 0 -15 15
      -17 160 -17 l159 0 84 115 c191 263 375 518 519 718 l153 214 -27 50 c-59 108
      -305 340 -488 461 -198 130 -343 185 -525 197 -150 11 -2601 11 -2680 0z"
      fill="#a78bfa"
    />
    <path
      d="M4120 5413 c-75 -13 -222 -58 -317 -96 -143 -59 -213 -81 -363 -116
      -69 -16 -204 -57 -300 -89 -266 -91 -266 -91 -202 -447 50 -274 100 -584 148
      -905 58 -395 74 -469 127 -577 83 -172 235 -284 425 -313 45 -7 574 -10 1587
      -8 1430 3 1524 5 1579 22 176 53 320 172 394 326 49 100 47 88 107 635 36 325
      132 1172 161 1415 6 51 4 59 -21 88 -15 18 -41 40 -59 50 -29 16 -140 17
      -1636 18 -883 1 -1616 0 -1630 -3z m1786 -398 c17 -7 51 -30 74 -51 114 -103
      120 -265 13 -384 l-46 -51 18 -191 18 -192 -23 -18 c-19 -16 -42 -18 -165 -18
      -122 0 -146 3 -165 18 l-22 18 21 193 20 194 -44 49 c-142 158 -68 395 140
      449 38 10 118 2 161 -16z"
      fill="#a78bfa"
    />
  </g>
</svg>

